HIERARCHY
ROOT Hips
{
	OFFSET 0.000000 0.000000 0.000000
	CHANNELS 6 Xposition Yposition Zposition Zrotation Yrotation Xrotation 
	JOINT LHipJoint
	{
		OFFSET 0.000000 0.000000 0.000000
		CHANNELS 3 Zrotation Yrotation Xrotation
		JOINT LeftUpLeg
		{
			OFFSET 1.363060 -1.794630 0.839290
			CHANNELS 3 Zrotation Yrotation Xrotation
			JOINT LeftLeg
			{
				OFFSET 2.448110 -6.726130 0.000000
				CHANNELS 3 Zrotation Yrotation Xrotation
				JOINT LeftFoot
				{
					OFFSET 2.562200 -7.039590 0.000000
					CHANNELS 3 Zrotation Yrotation Xrotation
					JOINT LeftToeBase
					{
						OFFSET 0.157640 -0.433110 2.322550
						CHANNELS 3 Zrotation Yrotation Xrotation
						End Site
						{
							OFFSET 0.000000 0.000000 0.000000
						}
					}
				}
			}
		}
	}
	JOINT RHipJoint
	{
		OFFSET 0.000000 0.000000 0.000000
		CHANNELS 3 Zrotation Yrotation Xrotation
		JOINT RightUpLeg
		{
			OFFSET -1.305520 -1.794630 0.839290
			CHANNELS 3 Zrotation Yrotation Xrotation
			JOINT RightLeg
			{
				OFFSET -2.542530 -6.985550 0.000000
				CHANNELS 3 Zrotation Yrotation Xrotation
				JOINT RightFoot
				{
					OFFSET -2.568260 -7.056230 0.000000
					CHANNELS 3 Zrotation Yrotation Xrotation
					JOINT RightToeBase
					{
						OFFSET -0.164730 -0.452590 2.363150
						CHANNELS 3 Zrotation Yrotation Xrotation
						End Site
						{
							OFFSET 0.000000 0.000000 0.000000
						}
					}
				}
			}
		}
	}
	JOINT LowerBack
	{
		OFFSET 0.000000 0.000000 0.000000
		CHANNELS 3 Zrotation Yrotation Xrotation
		JOINT Spine
		{
			OFFSET 0.028270 2.035590 -0.193380
			CHANNELS 3 Zrotation Yrotation Xrotation
			JOINT Spine1
			{
				OFFSET 0.056720 2.048850 -0.042750
				CHANNELS 3 Zrotation Yrotation Xrotation
				JOINT Neck
				{
					OFFSET 0.000000 0.000000 0.000000
					CHANNELS 3 Zrotation Yrotation Xrotation
					JOINT Neck1
					{
						OFFSET -0.054170 1.746240 0.172020
						CHANNELS 3 Zrotation Yrotation Xrotation
						JOINT Head
						{
							OFFSET 0.104070 1.761360 -0.123970
							CHANNELS 3 Zrotation Yrotation Xrotation
							End Site
							{
								OFFSET 0.000000 0.000000 0.000000
							}
						}
					}
				}
				JOINT LeftShoulder
				{
					OFFSET 0.000000 0.000000 0.000000
					CHANNELS 3 Zrotation Yrotation Xrotation
					JOINT LeftArm
					{
						OFFSET 3.362410 1.200890 -0.311210
						CHANNELS 3 Zrotation Yrotation Xrotation
						JOINT LeftForeArm
						{
							OFFSET 4.983000 -0.000000 -0.000000
							CHANNELS 3 Zrotation Yrotation Xrotation
							JOINT LeftHand
							{
								OFFSET 3.483560 -0.000000 -0.000000
								CHANNELS 3 Zrotation Yrotation Xrotation
								JOINT LeftFingerBase
								{
									OFFSET 0.000000 0.000000 0.000000
									CHANNELS 3 Zrotation Yrotation Xrotation
									JOINT LeftHandIndex1
									{
										OFFSET 0.715260 -0.000000 -0.000000
										CHANNELS 3 Zrotation Yrotation Xrotation
										End Site
										{
											OFFSET 0.000000 0.000000 0.000000
										}
									}
								}
								JOINT LThumb
								{
									OFFSET 0.000000 0.000000 0.000000
									CHANNELS 3 Zrotation Yrotation Xrotation
									End Site
									{
										OFFSET 0.000000 0.000000 0.000000
									}
								}
							}
						}
					}
				}
				JOINT RightShoulder
				{
					OFFSET 0.000000 0.000000 0.000000
					CHANNELS 3 Zrotation Yrotation Xrotation
					JOINT RightArm
					{
						OFFSET -3.136600 1.374050 -0.404650
						CHANNELS 3 Zrotation Yrotation Xrotation
						JOINT RightForeArm
						{
							OFFSET -5.241900 -0.000000 -0.000000
							CHANNELS 3 Zrotation Yrotation Xrotation
							JOINT RightHand
							{
								OFFSET -3.444170 -0.000000 -0.000000
								CHANNELS 3 Zrotation Yrotation Xrotation
								JOINT RightFingerBase
								{
									OFFSET 0.000000 0.000000 0.000000
									CHANNELS 3 Zrotation Yrotation Xrotation
									JOINT RightHandIndex1
									{
										OFFSET -0.622530 -0.000000 -0.000000
										CHANNELS 3 Zrotation Yrotation Xrotation
										End Site
										{
											OFFSET 0.000000 0.000000 0.000000
										}
									}
								}
								JOINT RThumb
								{
									OFFSET 0.000000 0.000000 0.000000
									CHANNELS 3 Zrotation Yrotation Xrotation
									End Site
									{
										OFFSET 0.000000 0.000000 0.000000
									}
								}
							}
						}
					}
				}
			}
		}
	}
}
MOTION
Frames: 11
Frame Time: 0.008333
4.199057 17.521027 0.815395 -171.229196 -85.691594 178.912996 -10.926073 1.241211 1.413575 -5.013354 4.795959 -27.070509 -1.038375 1.249355 27.438544 0.745047 3.984960 6.431891 0.947100 0.000000 -56.453900 9.782494 -1.136952 0.089237 9.202876 -7.147640 -26.467045 2.020163 -1.801526 25.201339 0.827253 7.046159 9.221899 1.661900 0.000000 -79.343800 -1.040979 -1.423799 -2.472802 -0.299067 -1.361418 -3.349618 -3.247226 -1.395608 -0.637095 5.055371 -11.745759 -9.217381 -1.078453 -0.057018 -0.434708 0.000000 0.000000 0.000000 14.410218 10.101465 1.045220 -42.936542 9.025689 16.936562 -179.000324 -61.421083 -179.993899 -0.397795 4.877100 -0.016693 0.033874 0.261889 -0.000000 0.000000 0.000000 0.000000 0.000000 0.000000 0.000000 -1.661985 -3.900696 0.736481 28.215965 30.793105 11.168925 179.727269 71.132866 179.967335 -2.109543 13.298100 -0.259538 -0.016230 -0.828635 0.000000 0.000000 0.000000 0.000000 0.000000 0.000000 0.000000 
4.072728 17.170189 0.795940 -173.721768 -85.022583 -178.418931 -10.855410 1.108313 1.269391 -5.470856 4.751463 -28.186531 -1.209273 1.375027 31.769271 0.897808 5.005470 -1.059708 0.576700 0.000000 -54.118200 9.621357 -0.988413 0.393624 9.465492 -5.025707 -28.656125 1.805615 -2.047455 30.571911 0.444508 4.200765 2.891241 0.497900 -0.000000 -75.249000 -1.136988 -1.476802 -2.627542 -0.392089 -1.419823 -3.380038 -3.642599 -1.440660 -0.645681 5.913322 -11.305058 -9.479401 -1.357246 -0.074287 -0.519916 0.000000 0.000000 0.000000 12.758662 10.912114 1.223255 -43.926291 8.865169 17.189419 -178.863540 -62.860486 -179.995509 -0.321183 5.084513 -0.013131 0.013133 0.249711 -0.000000 0.000000 0.000000 0.000000 0.000000 0.000000 0.000000 0.189035 -3.348145 0.833713 30.896609 30.311930 12.375402 179.598543 71.709862 179.971234 -2.049509 13.629303 -0.259269 -0.004684 -0.832584 0.000000 0.000000 0.000000 0.000000 0.000000 0.000000 0.000000 
3.950196 16.821765 0.767927 -177.423401 -84.678334 -174.421114 -10.792281 0.958042 1.146619 -6.133966 4.661617 -29.811205 -1.397247 1.550825 36.556726 1.148438 5.850174 -8.441524 -0.136899 0.000000 -50.510900 9.514152 -0.812003 0.712700 9.451609 -3.099646 -31.237302 1.570787 -2.342548 36.603274 -0.042376 1.778884 -3.626700 -0.008000 -0.000001 -70.401900 -1.451523 -1.591294 -2.847304 -0.523818 -1.524527 -3.411795 -4.031261 -1.533673 -0.605238 6.781487 -11.052077 -9.769949 -1.605244 -0.088564 -0.613413 0.000000 0.000000 0.000000 11.208088 11.710515 1.379933 -45.011737 8.264670 17.346066 -178.768556 -64.690370 -179.996836 -0.299729 5.327966 -0.011892 -0.005258 0.238969 -0.000000 0.000000 0.000000 0.000000 0.000000 0.000000 0.000000 1.983560 -3.035468 0.898763 33.969175 29.682793 13.662227 179.477271 72.590075 179.976809 -1.851022 13.835862 -0.238201 0.004185 -0.828463 0.000000 0.000000 0.000000 0.000000 0.000000 0.000000 0.000000 
3.831698 16.482707 0.733085 178.045502 -84.659464 -169.518040 -10.736845 0.798634 1.047697 -6.893472 4.453283 -31.769822 -1.558206 1.777417 41.586122 1.483736 6.605603 -15.325776 -1.081200 -0.000001 -46.032900 9.481287 -0.639102 1.011785 9.239543 -1.490399 -33.979654 1.332521 -2.679395 42.857025 -0.581060 -0.276911 -9.885378 0.030900 0.000000 -65.264800 -1.892077 -1.763500 -3.087372 -0.673768 -1.676363 -3.440611 -4.417094 -1.675156 -0.538821 7.624711 -10.991562 -10.073492 -1.822651 -0.100184 -0.710299 0.000000 0.000000 0.000000 9.742926 12.406991 1.516037 -46.194339 7.332210 17.429696 -178.722101 -66.897635 -179.997914 -0.331824 5.609147 -0.013187 -0.020993 0.229355 -0.000000 0.000000 0.000000 0.000000 0.000000 0.000000 0.000000 3.683162 -2.958026 0.921011 37.454419 28.828374 15.007750 179.379207 73.825355 179.983234 -1.592405 13.884905 -0.206036 0.012142 -0.814845 0.000000 0.000000 0.000000 0.000000 0.000000 0.000000 0.000000 
3.716230 16.159962 0.692831 172.303572 -84.959479 -163.347585 -10.685547 0.629445 0.987008 -7.687188 4.058137 -33.917172 -1.652156 2.036171 46.634510 1.872361 7.353777 -21.379083 -2.140100 0.000000 -41.645800 9.530257 -0.501964 1.272065 8.894829 -0.291669 -36.732882 1.099284 -3.051729 48.973319 -1.114456 -2.028427 -15.565729 0.450299 -0.000000 -60.660900 -2.408477 -1.988595 -3.337715 -0.831560 -1.873177 -3.466958 -4.797889 -1.863070 -0.458495 8.422112 -11.086676 -10.378597 -2.010950 -0.109526 -0.806644 0.000000 0.000000 0.000000 8.428430 12.995885 1.633625 -47.549505 6.084209 17.519360 -178.733256 -69.559687 -179.998884 -0.395887 5.909820 -0.016312 -0.034695 0.221734 -0.000000 0.000000 0.000000 0.000000 0.000000 0.000000 0.000000 5.270066 -3.080358 0.876911 41.308944 27.621171 16.342610 179.327749 75.444356 179.989120 -1.385900 13.790847 -0.178674 0.020631 -0.791923 0.000000 0.000000 0.000000 0.000000 0.000000 0.000000 0.000000 
3.604077 15.860775 0.650668 165.429107 -85.504742 -156.030549 -10.625019 0.455676 0.959198 -8.400030 3.500222 -36.085012 -1.661439 2.306790 51.500449 2.267754 8.104022 -26.421444 -3.208000 0.000000 -37.946000 9.662523 -0.408296 1.470943 8.539629 0.494389 -39.310519 0.873530 -3.443634 54.652564 -1.599804 -3.530950 -20.461950 1.085800 -0.000000 -57.228300 -2.853787 -2.245664 -3.554484 -0.970410 -2.104457 -3.491241 -5.177648 -2.086352 -0.397885 9.128235 -11.301468 -10.662865 -2.177329 -0.117634 -0.895536 0.000000 0.000000 0.000000 7.173525 13.407040 1.740115 -49.004205 4.702124 17.594908 -178.803388 -72.600000 -179.999911 -0.465383 6.227735 -0.020265 -0.047036 0.215057 -0.000000 0.000000 0.000000 0.000000 0.000000 0.000000 0.000000 6.722663 -3.350878 0.767121 45.434352 26.039664 17.554676 179.338173 77.496185 179.993392 -1.322126 13.563077 -0.168429 0.030575 -0.760619 0.000000 0.000000 0.000000 0.000000 0.000000 0.000000 0.000000 
3.495333 15.591139 0.609080 157.167368 -86.204564 -147.352727 -10.538177 0.291032 0.956706 -8.961264 2.840583 -38.130451 -1.592620 2.568228 56.008618 2.625043 8.817258 -30.402345 -4.189800 -0.000000 -35.228200 9.875498 -0.348284 1.599709 8.258310 0.912949 -41.586650 0.655518 -3.836029 59.716844 -2.011011 -4.800897 -24.505887 1.800300 -0.000000 -55.207900 -3.135102 -2.508553 -3.713572 -1.075566 -2.351892 -3.513819 -5.552612 -2.326748 -0.371839 9.722738 -11.574773 -10.912150 -2.330892 -0.125549 -0.972708 0.000000 0.000000 0.000000 5.956067 13.647344 1.839601 -50.539133 3.278833 17.659054 -178.935458 -75.997593 179.998820 -0.503505 6.546646 -0.022743 -0.058726 0.209076 -0.000000 0.000000 0.000000 0.000000 0.000000 0.000000 0.000000 8.058666 -3.703224 0.597216 49.656753 24.094647 18.494460 179.419215 80.003825 179.995022 -1.492900 13.242411 -0.186211 0.042127 -0.723134 0.000000 0.000000 0.000000 0.000000 0.000000 0.000000 0.000000 
3.389950 15.355716 0.569802 147.247078 -86.947682 -137.078838 -10.412991 0.163737 0.968588 -9.332164 2.165119 -39.935865 -1.469508 2.809151 60.017240 2.912230 9.432864 -33.373566 -5.009300 0.000000 -33.558400 10.159228 -0.295261 1.660034 8.100637 1.051645 -43.469664 0.446148 -4.203104 64.069179 -2.338712 -5.847491 -27.711589 2.492900 0.000000 -54.586800 -3.199856 -2.747516 -3.803379 -1.140108 -2.591433 -3.537427 -5.916003 -2.561309 -0.392738 10.199635 -11.841147 -11.109866 -2.483076 -0.134524 -1.033387 0.000000 0.000000 0.000000 4.753163 13.701270 1.931412 -52.115645 1.959489 17.671632 -179.128409 -79.677852 179.997235 -0.475278 6.851933 -0.021651 -0.069692 0.203167 -0.000000 0.000000 0.000000 0.000000 0.000000 0.000000 0.000000 9.319101 -4.065923 0.394834 53.774139 21.866586 19.019713 179.562376 82.966894 179.993631 -1.957193 12.882501 -0.237334 0.055085 -0.682239 0.000000 0.000000 0.000000 0.000000 0.000000 0.000000 0.000000 
3.287877 15.157269 0.533493 135.573492 -87.617434 -125.141656 -10.256217 0.107521 0.984014 -9.513791 1.560623 -41.416362 -1.323023 3.029641 63.425533 3.114869 9.896991 -35.462477 -5.621700 0.000000 -32.792500 10.487253 -0.218078 1.660635 8.074144 1.014221 -44.903542 0.249734 -4.515932 67.680399 -2.585825 -6.677745 -30.163736 3.101500 -0.000001 -54.990000 -3.065252 -2.933726 -3.824975 -1.168225 -2.794513 -3.562531 -6.257010 -2.763500 -0.455310 10.575338 -12.047540 -11.251174 -2.642472 -0.145321 -1.076557 0.000000 0.000000 0.000000 3.580723 13.588243 2.009921 -53.716805 0.828366 17.594865 -179.376346 -83.584080 179.995298 -0.350273 7.126971 -0.014398 -0.079508 0.196999 -0.000000 0.000000 0.000000 0.000000 0.000000 0.000000 0.000000 10.558776 -4.385280 0.197249 57.596979 19.495900 19.036140 179.745865 86.361788 179.989545 -2.728449 12.550266 -0.321410 0.068976 -0.640538 0.000000 0.000000 0.000000 0.000000 0.000000 0.000000 0.000000 
3.189211 14.996823 0.500074 122.744816 -88.118659 -112.160381 -10.105544 0.137305 0.993645 -9.540260 1.093291 -42.511094 -1.181445 3.234238 66.174354 3.234246 10.185073 -36.834813 -6.020000 0.000000 -32.733100 10.807017 -0.104305 1.611386 8.150776 0.892992 -45.863054 0.073517 -4.750691 70.561387 -2.763975 -7.312099 -31.978053 3.599200 -0.000000 -55.949400 -2.813821 -3.051326 -3.783635 -1.173772 -2.939337 -3.588135 -6.564971 -2.913732 -0.549587 10.876381 -12.156671 -11.335645 -2.813916 -0.158248 -1.102742 0.000000 0.000000 0.000000 2.472180 13.321828 2.069005 -55.327027 -0.051276 17.384909 -179.665602 -87.649681 179.993066 -0.109995 7.357996 0.000609 -0.087474 0.190304 -0.000000 0.000000 0.000000 0.000000 0.000000 0.000000 0.000000 11.821044 -4.625329 0.042842 60.991366 17.137380 18.525290 -0.056418 89.854354 -0.016245 -3.759309 12.310120 -0.432838 0.083078 -0.599832 0.000000 0.000000 0.000000 0.000000 0.000000 0.000000 0.000000 
3.093578 14.873672 0.469068 110.318228 -88.421402 -99.696207 -10.008328 0.228144 0.989578 -9.461724 0.787685 -43.178568 -1.063485 3.417481 68.251659 3.283773 10.308302 -37.666415 -6.232000 0.000000 -33.179000 11.061138 0.019640 1.523291 8.286157 0.747068 -46.356305 -0.072597 -4.903362 72.743299 -2.889110 -7.786383 -33.280065 3.986899 0.000000 -57.030200 -2.547897 -3.109279 -3.684976 -1.173454 -3.025990 -3.611455 -6.832410 -3.012717 -0.663919 11.128822 -12.145206 -11.365758 -2.997869 -0.173178 -1.113453 0.000000 0.000000 0.000000 1.470725 12.911014 2.108103 -56.930471 -0.649306 17.009046 0.023471 -88.189028 -0.009086 0.248857 7.534809 0.023867 -0.093078 0.182978 0.000000 0.000000 0.000000 0.000000 0.000000 0.000000 0.000000 13.121038 -4.769074 -0.042848 63.892443 14.916260 17.540621 0.136426 85.737734 -0.022438 -4.949638 12.207959 -0.562925 0.096268 -0.560822 -0.000000 0.000000 0.000000 0.000000 0.000000 0.000000 0.000000 
